<?xml version="1.0" encoding="utf-8"?>
<!-- Generator: Adobe Illustrator 16.0.0, SVG Export Plug-In . SVG Version: 6.00 Build 0)  -->
<!DOCTYPE svg PUBLIC "-//W3C//DTD SVG 1.1//EN" "http://www.w3.org/Graphics/SVG/1.1/DTD/svg11.dtd">
<svg version="1.1" id="Your_Icon_copia_2" xmlns="http://www.w3.org/2000/svg" xmlns:xlink="http://www.w3.org/1999/xlink" x="0px"
	 y="0px" width="57.167px" height="70.833px" viewBox="0 0 57.167 70.833" enable-background="new 0 0 57.167 70.833"
	 xml:space="preserve">
<g>
	<path fill="#FFFFFF" d="M33.84,71.021H10.845c-3.241,0-6.171-2.619-6.532-5.841L0.271,29.098c-0.181-1.609,0.291-3.134,1.327-4.292
		c1.035-1.158,2.498-1.796,4.118-1.796h14.883c0.614,0,1.111,0.497,1.111,1.111c0,0.614-0.497,1.111-1.111,1.111H5.716
		c-0.979,0-1.853,0.375-2.462,1.056c-0.608,0.681-0.883,1.591-0.774,2.563l4.042,36.082c0.235,2.096,2.215,3.867,4.324,3.867H33.84
		c2.115,0,4.119-1.773,4.375-3.873l0.311-2.533c0.25-2.039,1.105-3.537,2.349-4.111c0.866-0.398,1.813-0.309,2.672,0.259
		c0.99,0.653,3.403,0.501,5.278-0.761c1.858-1.25,3.846-4.291,4.34-6.643l1.443-6.863c0.465-2.208-0.688-5.195-2.514-6.52
		l-0.077-0.057c-1.735-1.26-4.532-1.085-6.101,0.385l-0.1,0.092c-1.692,1.587-2.873,1.479-3.566,1.11
		c-0.693-0.37-1.439-1.291-1.066-3.583l1.191-7.304c0.156-0.956-0.066-1.845-0.629-2.506c-0.562-0.661-1.404-1.024-2.372-1.024
		H28.656c-2.398,0-3.197-1.065-3.461-1.701c-0.264-0.635-0.451-1.953,1.245-3.649l0.656-0.657c0.71-0.709,1.099-1.657,1.099-2.669
		c0-1.012-0.389-1.959-1.098-2.668l-2.979-2.978c-2.338-2.338-2.721-5.758-0.854-7.624l2.599-2.599c0.434-0.433,1.137-0.433,1.571,0
		c0.435,0.434,0.435,1.138,0,1.572l-2.599,2.598c-0.983,0.983-0.591,3.035,0.855,4.481l2.977,2.978c2.338,2.338,2.338,6.142,0,8.479
		l-0.656,0.657c-0.736,0.737-0.785,1.173-0.764,1.229c0.024,0.054,0.367,0.329,1.408,0.329h10.719c1.63,0,3.074,0.643,4.064,1.808
		c0.991,1.165,1.393,2.693,1.129,4.303l-1.191,7.303c-0.103,0.631-0.074,0.994-0.037,1.18c0.176-0.073,0.494-0.251,0.96-0.688
		l0.099-0.092c2.334-2.186,6.342-2.436,8.929-0.557l0.077,0.056c2.539,1.842,4.025,5.696,3.379,8.773l-1.444,6.863
		c-0.615,2.928-2.931,6.455-5.272,8.029c-2.476,1.665-5.877,2.004-7.744,0.771c-0.301-0.198-0.445-0.129-0.516-0.096
		c-0.4,0.186-0.908,1.004-1.074,2.363l-0.31,2.533C40.027,68.409,37.075,71.021,33.84,71.021z"/>
</g>
</svg>
