<?xml version="1.0" encoding="utf-8"?>
<!-- Generator: Adobe Illustrator 16.0.0, SVG Export Plug-In . SVG Version: 6.00 Build 0)  -->
<!DOCTYPE svg PUBLIC "-//W3C//DTD SVG 1.1//EN" "http://www.w3.org/Graphics/SVG/1.1/DTD/svg11.dtd">
<svg version="1.1" id="Layer_1" xmlns="http://www.w3.org/2000/svg" xmlns:xlink="http://www.w3.org/1999/xlink" x="0px" y="0px"
	 width="68.822px" height="37.085px" viewBox="0 0 68.822 37.085" enable-background="new 0 0 68.822 37.085" xml:space="preserve">
<g>
	<g>
		<g>
			<path fill="#FFFFFF" d="M46.822,12.734c0.277,1.219,0.482,2.454,0.588,3.687c0.564,6.652-0.318,11.554-2.783,15.061
				c0.842,1.429,1.965,2.623,3.406,3.434c0.611,0.344,1.264,0.605,1.953,0.801c-2.635-12.326,1.404-14.981,5.691-17.759
				c3.359-2.176,6.82-4.433,7.871-11.701C60.16,4.489,52.051,5.379,46.822,12.734z"/>
		</g>
		<path fill="#FFFFFF" d="M64.793,7.074c-1.252,7.39-5.02,9.846-8.377,12.023c-4.283,2.775-7.672,5.013-4.977,16.917
			c6.66,0.855,11.318-2.451,15.09-10.723C69.416,18.965,69.424,10.774,64.793,7.074z"/>
		<path fill="#FFFFFF" d="M9.582,19.228c0.483-3.68,0.971-7.48-3.53-12.591c-3.541,1.436-8.248,8.594-4.915,17.641
			c2.929,7.947,10.027,12.676,15.823,10.541c0.609-0.225,1.186-0.527,1.74-0.897C8.414,28.373,8.967,23.924,9.582,19.228z"/>
		<g>
			<path fill="#FFFFFF" d="M19.068,17.581c0-1.659,0.156-3.215,0.432-4.672C16.452,8.542,11.792,5.396,7.379,6.25
				c4.465,5.327,3.934,9.463,3.454,13.142c-0.616,4.693-1.073,8.431,8.952,13.684c1.01-0.919,1.812-1.892,2.423-2.929
				C20.248,26.662,19.068,22.311,19.068,17.581z"/>
		</g>
	</g>
	<g>
		<path fill="#FFFFFF" d="M31.815,15.787c2.09-3.979,4.236-8.095,1.261-15.787C28.45,0.149,20.105,6.313,20.105,17.99
			c0,10.258,6.088,18.604,13.569,18.604c0.785,0,1.569-0.104,2.352-0.291C26.658,25.69,29.149,20.867,31.815,15.787z"/>
		<path fill="#FFFFFF" d="M46.477,16.991c-0.66-7.782-5.162-15.802-11.731-16.875c2.844,7.922,0.509,12.401-1.579,16.381
			c-2.664,5.074-4.748,9.132,4.446,19.299C44.602,32.964,47.34,27.163,46.477,16.991z"/>
	</g>
</g>
</svg>
