<?xml version="1.0" encoding="utf-8"?>
<!-- Generator: Adobe Illustrator 16.0.0, SVG Export Plug-In . SVG Version: 6.00 Build 0)  -->
<!DOCTYPE svg PUBLIC "-//W3C//DTD SVG 1.1//EN" "http://www.w3.org/Graphics/SVG/1.1/DTD/svg11.dtd">
<svg version="1.1" id="Layer_1" xmlns="http://www.w3.org/2000/svg" xmlns:xlink="http://www.w3.org/1999/xlink" x="0px" y="0px"
	 width="74px" height="65.5px" viewBox="0 0 74 65.5" enable-background="new 0 0 74 65.5" xml:space="preserve">
<g>
	<path d="M19.337,18.679c3.72,0,6.747-3.027,6.747-6.747c0-3.719-3.027-6.745-6.747-6.745c-3.72,0-6.747,3.026-6.747,6.745
		C12.591,15.652,15.619,18.679,19.337,18.679z M19.337,7.521c2.434,0,4.413,1.979,4.413,4.412c0,2.434-1.979,4.413-4.413,4.413
		c-2.433,0-4.413-1.979-4.413-4.413C14.925,9.499,16.905,7.521,19.337,7.521z"/>
	<circle cx="19.337" cy="11.932" r="2.228"/>
	<path d="M54.539,51.574c0.832,0,1.521-0.68,1.521-1.521c0-0.832-0.689-1.523-1.521-1.523c-0.844,0-1.523,0.691-1.523,1.523
		C53.016,50.895,53.695,51.574,54.539,51.574z"/>
	<path d="M54.539,47.211c0.832,0,1.521-0.68,1.521-1.521s-0.689-1.521-1.521-1.521c-0.844,0-1.523,0.68-1.523,1.521
		S53.695,47.211,54.539,47.211z"/>
	<path d="M58.055,22.436c8.787-1.83,15.482-10.673,15.482-21.323c0-0.645-0.523-1.167-1.166-1.167c-0.645,0-1.168,0.522-1.168,1.167
		c0,6.518-2.762,12.271-6.975,15.778c0.414-0.989,0.645-2.056,0.645-3.17c0-5.079-4.707-9.21-10.49-9.21
		c-5.779,0-10.486,4.132-10.486,9.21c0,0.807,0.121,1.587,0.344,2.333c-3.674-3.553-6.025-8.924-6.025-14.94
		c0-0.645-0.523-1.167-1.168-1.167c-0.643,0-1.167,0.522-1.167,1.167c0,10.686-7.42,19.378-16.542,19.378
		c-9.121,0-16.54-8.692-16.54-19.378c0-0.645-0.523-1.167-1.167-1.167c-0.645,0-1.167,0.522-1.167,1.167
		c0,11.972,8.467,21.712,18.874,21.712c8.123,0,15.042-5.943,17.699-14.239c2.149,6.714,7.1,11.865,13.211,13.585
		c0.199,0.076,0.4,0.146,0.605,0.213l0.07,0.235v7.813h-2.42v1.678c-1.775-1.769-3.971-2.775-6.295-2.775
		c-5.188,0-9.479,4.978-10.203,11.431c-3.724,0.834-6.596,6.027-6.596,12.328c0,6.883,3.423,12.461,7.646,12.461
		c4.219,0,7.643-5.578,7.643-12.461c0-6.164-2.75-11.269-6.354-12.269c0.643-5.19,3.918-9.155,7.864-9.155
		c2.463,0,4.775,1.6,6.293,4.287v4.986h-0.277c-1.723,0-3.121,1.402-3.121,3.123v18.057c0,1.723,1.398,3.121,3.121,3.121h12.316
		c1.723,0,3.121-1.398,3.121-3.121V44.066c0-1.721-1.398-3.123-3.121-3.123h-0.277v-10.51h-2.246v-7.875L58.055,22.436z
		 M50.84,32.767h2.174v4.179c0,0.107,0.012,0.213,0.033,0.314c0.137,0.7,0.752,1.227,1.492,1.227c0.832,0,1.521-0.68,1.521-1.521
		c0-0.013-0.004-0.025-0.004-0.039v-4.159h1.875v8.165H56c-0.178-0.647-0.768-1.125-1.465-1.125c-0.703,0-1.289,0.479-1.463,1.125
		h-2.236v-5.473l0.051-0.023c-0.018-0.031-0.033-0.057-0.051-0.086v-2.583H50.84L50.84,32.767z M61.332,44.066v9.027H47.439v-9.027
		c0-0.436,0.354-0.789,0.787-0.789h12.316C60.979,43.277,61.332,43.631,61.332,44.066z M54.385,6.844
		c4.498,0,8.156,3.084,8.156,6.876c0,2.372-1.445,4.447-3.617,5.683l1.238-4.315c0.178-0.62-0.18-1.267-0.799-1.444
		c-0.619-0.176-1.266,0.18-1.443,0.799l-2.188,7.629c-0.031,0.105-0.047,0.214-0.047,0.322v7.911h-2.428v-7.861
		c0-0.115-0.016-0.231-0.051-0.343l-2.359-7.679c-0.189-0.616-0.844-0.962-1.459-0.772c-0.615,0.19-0.963,0.844-0.771,1.458
		l1.34,4.355c-2.232-1.229-3.725-3.332-3.725-5.742C46.23,9.928,49.889,6.844,54.385,6.844z"/>
</g>
</svg>
