<?xml version="1.0" encoding="utf-8"?>
<!-- Generator: Adobe Illustrator 16.0.0, SVG Export Plug-In . SVG Version: 6.00 Build 0)  -->
<!DOCTYPE svg PUBLIC "-//W3C//DTD SVG 1.1//EN" "http://www.w3.org/Graphics/SVG/1.1/DTD/svg11.dtd">
<svg version="1.1" id="Ebene_1" xmlns="http://www.w3.org/2000/svg" xmlns:xlink="http://www.w3.org/1999/xlink" x="0px" y="0px"
	 width="48.833px" height="48.833px" viewBox="0 0 48.833 48.833" enable-background="new 0 0 48.833 48.833" xml:space="preserve">
<g>
	<g>
		<g>
			<path fill="#FFFFFF" d="M24.308,48.612c-3.281,0-6.465-0.643-9.463-1.91c-2.895-1.225-5.494-2.977-7.726-5.209
				s-3.984-4.831-5.208-7.726C0.643,30.771,0,27.587,0,24.306s0.643-6.464,1.911-9.461c1.224-2.895,2.977-5.494,5.208-7.726
				s4.831-3.984,7.726-5.208C17.842,0.643,21.025,0,24.306,0c3.291,0,6.479,0.643,9.477,1.911c2.768,1.17,5.367,2.918,7.725,5.194
				l-1.607,1.666c-2.183-2.107-4.479-3.653-7.02-4.728c-2.711-1.146-5.595-1.728-8.574-1.728c-2.969,0-5.849,0.581-8.559,1.728
				c-2.619,1.107-4.971,2.693-6.991,4.713s-3.606,4.372-4.714,6.991c-1.146,2.71-1.727,5.59-1.727,8.56
				c0,2.97,0.581,5.849,1.727,8.56c1.107,2.618,2.693,4.97,4.714,6.99s4.372,3.606,6.991,4.713c2.71,1.146,5.59,1.728,8.561,1.728
				c2.969,0,5.85-0.582,8.561-1.728c2.62-1.108,4.973-2.694,6.992-4.713c2.023-2.024,3.611-4.376,4.717-6.991
				c1.15-2.722,1.734-5.667,1.734-8.56h2.314c0,3.327-0.645,6.453-1.917,9.461c-1.223,2.891-2.976,5.49-5.212,7.726
				c-2.231,2.231-4.831,3.983-7.728,5.208C30.772,47.97,27.589,48.612,24.308,48.612z"/>
		</g>
	</g>
	<g>
		<g>
			<polygon fill="#FFFFFF" points="48.61,17.65 35.88,17.65 35.88,15.335 46.296,15.335 46.296,4.919 48.61,4.919 			"/>
		</g>
	</g>
</g>
</svg>
