<?xml version="1.0" encoding="utf-8"?>
<!-- Generator: Adobe Illustrator 16.0.0, SVG Export Plug-In . SVG Version: 6.00 Build 0)  -->
<!DOCTYPE svg PUBLIC "-//W3C//DTD SVG 1.1//EN" "http://www.w3.org/Graphics/SVG/1.1/DTD/svg11.dtd">
<svg version="1.1" id="Your_Icon_copia_2" xmlns="http://www.w3.org/2000/svg" xmlns:xlink="http://www.w3.org/1999/xlink" x="0px"
	 y="0px" width="56px" height="70px" viewBox="0 0 56 70" enable-background="new 0 0 56 70" xml:space="preserve">
<g>
	<path fill="#FFFFFF" d="M33.167,69.925H10.564c-3.195,0-6.084-2.582-6.44-5.758L0.152,28.7c-0.178-1.587,0.287-3.091,1.309-4.234
		c1.021-1.142,2.465-1.772,4.062-1.772h11.27c3.26,0,5.912,2.653,5.912,5.912v7.258c0,2.281,1.599,5.287,3.492,6.561l0.521,0.352
		c2.508,1.688,4.473,5.38,4.473,8.404v7.571c0,3.261-2.652,5.911-5.912,5.911h-7.731c-3.26,0-5.912-2.65-5.912-5.911v-6.265
		c0-3.012,1.746-6.625,3.974-8.225l3.51-2.521c0.5-0.357,1.193-0.244,1.551,0.254c0.357,0.499,0.244,1.192-0.254,1.55l-3.511,2.522
		c-1.652,1.187-3.047,4.126-3.047,6.419v6.266c0,2.035,1.655,3.689,3.689,3.689h7.731c2.035,0,3.689-1.654,3.689-3.689v-7.572
		c0-2.282-1.598-5.287-3.492-6.561l-0.521-0.352c-2.507-1.689-4.473-5.381-4.473-8.404v-7.258c0-2.035-1.656-3.69-3.689-3.69H5.523
		c-0.957,0-1.811,0.366-2.406,1.031c-0.595,0.665-0.864,1.555-0.756,2.505l3.973,35.466c0.229,2.051,2.167,3.784,4.231,3.784h22.604
		c2.069,0,4.03-1.735,4.28-3.789l0.306-2.491c0.246-2.01,1.091-3.488,2.319-4.055c0.855-0.396,1.795-0.306,2.645,0.255
		c0.969,0.64,3.33,0.489,5.17-0.748c1.822-1.226,3.77-4.21,4.255-6.517l1.42-6.745c0.454-2.165-0.674-5.091-2.463-6.391
		l-0.076-0.054c-1.7-1.236-4.437-1.064-5.972,0.375l-0.099,0.091c-1.672,1.565-2.841,1.46-3.528,1.093
		c-0.686-0.366-1.426-1.277-1.057-3.541l1.17-7.18c0.152-0.934-0.065-1.803-0.613-2.448c-0.549-0.646-1.372-1.001-2.317-1.001
		H26.403c-2.369,0-3.161-1.055-3.42-1.683c-0.26-0.629-0.447-1.933,1.229-3.608l0.646-0.646c0.694-0.693,1.075-1.62,1.075-2.609
		c0-0.99-0.381-1.916-1.075-2.609l-2.928-2.927c-2.305-2.305-2.682-5.679-0.84-7.521L23.645,0.4c0.434-0.434,1.137-0.434,1.571,0
		c0.434,0.434,0.434,1.138,0,1.571l-2.554,2.555c-0.428,0.427-0.603,1.087-0.493,1.861c0.124,0.877,0.609,1.795,1.333,2.518
		l2.927,2.926c1.113,1.113,1.727,2.597,1.727,4.181c0,1.583-0.613,3.068-1.727,4.181l-0.646,0.646
		c-0.692,0.692-0.765,1.12-0.746,1.188c0.034,0.059,0.389,0.31,1.367,0.31h12.204c1.608,0,3.032,0.633,4.011,1.784
		c0.977,1.149,1.373,2.658,1.113,4.245l-1.17,7.179c-0.094,0.57-0.077,0.934-0.043,1.132c0.186-0.082,0.496-0.271,0.917-0.665
		l0.098-0.091c2.3-2.153,6.248-2.4,8.799-0.548l0.075,0.054c2.503,1.817,3.966,5.615,3.329,8.644l-1.42,6.746
		c-0.605,2.882-2.886,6.354-5.19,7.903c-2.438,1.639-5.792,1.975-7.633,0.758c-0.287-0.188-0.423-0.124-0.488-0.093
		c-0.389,0.18-0.883,0.979-1.045,2.308l-0.305,2.492C39.267,67.35,36.358,69.925,33.167,69.925z"/>
</g>
</svg>
