<?xml version="1.0"?>
<svg width="100" height="100" xmlns="http://www.w3.org/2000/svg" xmlns:svg="http://www.w3.org/2000/svg">
 <g>
  <title>Layer 1</title>
  <g id="svg_1">
   <path id="svg_2" d="m44.771,22.993999c-8.304001,0 -15.853001,2.333 -21.333,6.157c-5.48,3.823999 -8.947001,9.223001 -8.947001,15.24s3.466999,11.387001 8.947001,15.240002c5.48,3.823997 13.028999,6.156002 21.333,6.156002c4.752998,0 9.255001,-0.758003 13.279999,-2.137005c0.896,4.134998 4.613003,7.227001 8.976002,7.227001c5.087997,0 9.197998,-4.133003 9.197998,-9.223c0,-3.288998 -1.733002,-6.158001 -4.306,-7.786999c1.985001,-2.84 3.104004,-6.046001 3.104004,-9.477001c0,-6.017002 -3.467003,-11.416 -8.947006,-15.24c-5.478996,-3.823 -13.000996,-6.156 -21.304996,-6.156l0,0zm0,1.602001c8.023998,0 15.237,2.25 20.41,5.875999c5.172997,3.598999 8.275002,8.52 8.275002,13.917999c0,3.149002 -1.062004,6.101002 -2.936005,8.773003c-1.089996,-0.451 -2.236,-0.732002 -3.493996,-0.732002c-5.061001,0 -9.199001,4.135002 -9.199001,9.223c0,0.140999 0.028,0.254002 0.028,0.365002c-3.914001,1.405998 -8.360001,2.192997 -13.084999,2.192997c-8.024002,0 -15.266001,-2.247997 -20.438002,-5.876999c-5.171999,-3.626999 -8.275,-8.547001 -8.275,-13.945s3.103001,-10.319 8.275,-13.917999c5.174002,-3.625999 12.416002,-5.875999 20.439001,-5.875999l0,0zm22.256001,29.41c4.222,0 7.604004,3.431999 7.604004,7.647999c0,4.246002 -3.383003,7.648003 -7.604004,7.648003c-4.194,0 -7.605,-3.402 -7.605,-7.648003c0,-4.216 3.410999,-7.647999 7.605,-7.647999l0,0zm13.028999,12.062c-2.990997,0 -5.423996,2.446999 -5.423996,5.455002c0,3.010002 2.432999,5.481995 5.423996,5.481995s5.452003,-2.473 5.452003,-5.481995c0,-3.007004 -2.461006,-5.455002 -5.452003,-5.455002l0,0zm0,1.603996c2.153,0 3.887001,1.714996 3.887001,3.851997c0,2.166 -1.733002,3.908005 -3.887001,3.908005c-2.152,0 -3.830002,-1.742004 -3.830002,-3.908005c0,-2.136993 1.677002,-3.851997 3.830002,-3.851997l0,0z" fill="#000000"/>
  </g>
 </g>
</svg>