<?xml version="1.0" encoding="utf-8"?>
<!-- Generator: Adobe Illustrator 16.0.0, SVG Export Plug-In . SVG Version: 6.00 Build 0)  -->
<!DOCTYPE svg PUBLIC "-//W3C//DTD SVG 1.1//EN" "http://www.w3.org/Graphics/SVG/1.1/DTD/svg11.dtd">
<svg version="1.1" id="Layer_1" xmlns="http://www.w3.org/2000/svg" xmlns:xlink="http://www.w3.org/1999/xlink" x="0px" y="0px"
	 width="39.75px" height="31.21px" viewBox="0 0 39.75 31.21" enable-background="new 0 0 39.75 31.21" xml:space="preserve">
<g>
	<path fill="#565656" d="M24.865,14.533c1.972-1.449,3.252-3.849,3.252-6.485c0-4.403-3.569-8.001-7.973-8.001
		s-7.974,3.552-7.974,7.955c0,2.637,1.28,5.087,3.253,6.54c-4.512,1.829-7.688,6.444-7.688,11.608c0,6.881,24.819,6.881,24.819,0
		C32.553,20.986,29.376,16.363,24.865,14.533z"/>
	<path fill="#565656" d="M34.014,14.734c1.449-1.068,2.391-2.805,2.391-4.742c0-3.238-2.625-5.875-5.862-5.875
		c-0.728,0-1.423,0.135-2.064,0.375c0.459,1.087,0.714,2.276,0.714,3.528c0,2.311-0.883,4.522-2.418,6.186
		c4.211,2.356,6.854,6.836,6.854,11.834c0,0.195-0.016,0.406-0.053,0.619c3.354-0.42,6.092-1.564,6.092-3.436
		C39.666,19.199,37.33,16.079,34.014,14.734z"/>
	<path fill="#565656" d="M6.663,26.041c0-4.904,2.55-9.314,6.631-11.7c0.062-0.059,0.122-0.116,0.183-0.178
		c-1.512-1.66-2.378-3.863-2.378-6.167c0-1.187,0.231-2.319,0.65-3.359c-0.733-0.333-1.546-0.52-2.402-0.52
		c-3.238,0-5.862,2.621-5.862,5.859c0,1.938,0.941,3.691,2.391,4.758c-3.317,1.345-5.653,4.464-5.653,8.49
		c0,1.943,2.963,3.107,6.5,3.484C6.68,26.478,6.663,26.251,6.663,26.041z"/>
</g>
</svg>
