<?xml version="1.0" encoding="utf-8"?>
<!-- Generator: Adobe Illustrator 16.0.0, SVG Export Plug-In . SVG Version: 6.00 Build 0)  -->
<!DOCTYPE svg PUBLIC "-//W3C//DTD SVG 1.1//EN" "http://www.w3.org/Graphics/SVG/1.1/DTD/svg11.dtd">
<svg version="1.1" id="Layer_1" xmlns="http://www.w3.org/2000/svg" xmlns:xlink="http://www.w3.org/1999/xlink" x="0px" y="0px"
	 width="30.833px" height="30.833px" viewBox="0 0 30.833 30.833" enable-background="new 0 0 30.833 30.833" xml:space="preserve">
<g id="Your_Icon">
	<path fill="#FFFFFF" d="M23.853,16.256c0.031-0.03,0.059-0.062,0.085-0.092c0.014-0.017,0.026-0.034,0.04-0.051
		c0.006-0.01,0.012-0.017,0.019-0.026c0.188-0.252,0.299-0.563,0.3-0.902c-0.001-0.338-0.112-0.649-0.299-0.901
		c-0.008-0.012-0.017-0.023-0.025-0.034c-0.012-0.015-0.021-0.028-0.034-0.042c-0.026-0.032-0.054-0.064-0.086-0.097l-6.746-6.744
		c-0.593-0.593-1.554-0.593-2.147,0c-0.594,0.592-0.594,1.553,0,2.146l4.153,4.154H7.592c-0.839,0-1.518,0.68-1.518,1.519
		c0,0.838,0.679,1.518,1.518,1.518h11.519l-4.153,4.152c-0.593,0.594-0.593,1.555,0,2.148c0.594,0.593,1.555,0.593,2.147,0
		l6.745-6.744C23.851,16.258,23.852,16.258,23.853,16.256z"/>
	<path fill="#FFFFFF" d="M0,15.186c0,8.386,6.798,15.184,15.186,15.184c8.386,0,15.184-6.798,15.185-15.185
		C30.37,6.798,23.571,0,15.186,0C6.798,0,0,6.798,0,15.186z M27.333,15.186c0,6.708-5.439,12.147-12.147,12.147
		c-6.709,0-12.148-5.439-12.148-12.147c0-6.709,5.439-12.149,12.148-12.149C21.894,3.036,27.333,8.477,27.333,15.186z"/>
</g>
</svg>
