<?xml version="1.0"?>
<svg width="100" height="100" xmlns="http://www.w3.org/2000/svg" xmlns:svg="http://www.w3.org/2000/svg">
 <title>skull</title>
 <g>
  <title>Layer 1</title>
  <g id="svg_1">
   <path id="svg_2" d="m50.014999,14.346c-17.120998,0 -31.055,13.251 -31.055,29.646001c0,8.843998 4.062,18.641998 10.464001,25.884998l0,2.667c0,7.243004 5.924,13.110001 13.229,13.110001l14.723999,0c7.305,0 13.229004,-5.866997 13.229004,-13.110001l0,-2.695c6.402,-7.215 10.435997,-17.013 10.435997,-25.855999c-0.001999,-16.396 -13.906998,-29.647 -31.027,-29.647l0,0zm0,1.572001c16.274002,0 29.445999,12.577001 29.445999,28.074c0,8.450001 -3.977997,18.135998 -10.238998,25.099003c-0.140999,0.140999 -0.196999,0.336998 -0.225998,0.532997l0,2.919998c0,4.997002 -3.158005,9.236 -7.644001,10.836998l0,-8.253998c0,-0.477997 -0.507999,-0.898003 -0.987,-0.785995c-0.338001,0.084 -0.620003,0.420998 -0.620003,0.785995l0,8.731003c-0.761997,0.139999 -1.551998,0.224998 -2.368999,0.224998l-3.047001,0c0,-0.028 0,-0.056999 0,-0.056999l0,-8.899002c0.028,-0.477997 -0.507,-0.898003 -0.959,-0.785995c-0.365997,0.084 -0.647999,0.420998 -0.619999,0.785995l0,8.899002c0,0 0,0.028 0,0.056999l-5.443001,0c0,-0.028 0,-0.056999 0,-0.056999l0,-8.899002c0,-0.477997 -0.507999,-0.898003 -0.987,-0.785995c-0.339001,0.084 -0.619999,0.420998 -0.619999,0.785995l0,8.899002c0,0 0,0.028 0,0.056999l-3.047001,0c-0.817001,0 -1.636002,-0.112 -2.396999,-0.252998l0,-8.703003c0,-0.477997 -0.507999,-0.898003 -0.959,-0.785995c-0.366001,0.084 -0.648003,0.420998 -0.619999,0.785995l0,8.253998c-4.485001,-1.600998 -7.644001,-5.839996 -7.644001,-10.836998l0,-2.919998c0,-0.195999 -0.085001,-0.392998 -0.198002,-0.532997c-6.289,-6.963005 -10.294998,-16.648003 -10.294998,-25.099003c-0.001001,-15.497 13.170998,-28.074 29.474998,-28.074l0,0zm-15.514,26.193c-3.893,0 -7.276999,3.368999 -7.276999,7.215c0,3.875 3.384998,7.271 7.276999,7.271c1.917999,0 3.807999,-0.785999 5.190002,-2.133999c1.353996,-1.348 2.143997,-3.229 2.143997,-5.137001c-0.028,-3.846001 -3.440998,-7.215 -7.334,-7.215l0,0zm30.998001,0c-3.893002,0 -7.306,3.368999 -7.306,7.215c0,1.909 0.762001,3.790001 2.144001,5.137001c1.354,1.348 3.243999,2.133999 5.161999,2.133999c3.892998,0 7.306,-3.396 7.306,-7.271c0,-3.846001 -3.413002,-7.215 -7.306,-7.215l0,0zm-30.998001,1.572998c2.934002,0 5.726002,2.751003 5.726002,5.643002c0,1.487999 -0.620003,2.976002 -1.664001,4.014c-1.042999,1.039001 -2.565998,1.656002 -4.062,1.656002c-2.934,0 -5.696999,-2.779003 -5.696999,-5.670002c0,-2.891998 2.762999,-5.643002 5.696999,-5.643002l0,0zm30.998001,0c2.933998,0 5.725998,2.751003 5.725998,5.643002c0,2.890999 -2.792,5.670002 -5.725998,5.670002c-1.495003,0 -2.990002,-0.617001 -4.033001,-1.656002c-1.043999,-1.037998 -1.692001,-2.526001 -1.692001,-4.014c-0.000999,-2.891998 2.791,-5.643002 5.725002,-5.643002l0,0zm-15.484001,13.784c-1.834,0 -3.328999,1.319 -4.343998,2.752003c-1.016003,1.431999 -1.664001,3.030998 -1.664001,4.322998c0,1.291 0.789001,2.386002 1.889999,3.145004c1.100002,0.728996 2.538002,1.149994 4.118,1.149994c1.579002,0 3.018002,-0.420998 4.117001,-1.149994c1.101002,-0.759003 1.861,-1.854004 1.861,-3.145004c0,-1.292 -0.647999,-2.891998 -1.664001,-4.322998c-1.014999,-1.433002 -2.480999,-2.752003 -4.313999,-2.752003l0,0zm0,1.600002c1.014999,0 2.171001,0.869999 3.018002,2.077c0.874001,1.207001 1.382,2.723999 1.382,3.396999c0,0.646004 -0.395,1.291 -1.185001,1.823997c-0.762001,0.534004 -1.945999,0.898003 -3.215,0.898003c-1.298,0 -2.425999,-0.363998 -3.216,-0.898003c-0.790001,-0.532997 -1.185001,-1.179001 -1.185001,-1.823997c0,-0.674 0.536003,-2.189999 1.382,-3.396999c0.847,-1.207001 1.975002,-2.077 3.019001,-2.077l0,0z"/>
  </g>
 </g>
</svg>