<?xml version="1.0"?>
<svg width="100" height="100" xmlns="http://www.w3.org/2000/svg" xmlns:svg="http://www.w3.org/2000/svg">
 <g>
  <title>Layer 1</title>
  <g id="svg_1">
   <path id="svg_2" d="m49.289001,18.511c-10.795998,0.250999 -21.195999,5.860001 -27.004999,15.74c-7.736,13.200001 -4.646999,29.583 6.461,39.293999c0.028,0 0.056999,0 0.056999,0.028c1.048,0.920998 2.181999,1.786003 3.372002,2.567001c0.594997,0.417999 1.189999,0.780998 1.841999,1.143997c1.841999,1.061005 3.769001,1.870003 5.723999,2.540001c0.424999,0.139999 0.878002,0.278999 1.332001,0.418999c0.907001,0.250999 1.813,0.473999 2.720001,0.669998c0.934998,0.167007 1.870998,0.307007 2.776997,0.418007c0.34,0.028 0.68,0.056 1.02,0.084c0.283001,0.027 0.567001,0.027 0.850002,0.056c0.254997,0 0.452999,0.028 0.68,0.028c0.084999,0 0.169998,0 0.254997,0c0.963001,0 1.899002,0 2.862003,-0.084c0.453999,-0.028 0.935997,-0.056 1.389,-0.111c0.282997,-0.028 0.537998,-0.056999 0.821999,-0.112c0.283001,-0.027 0.565998,-0.083 0.820999,-0.111c1.021,-0.167 2.012001,-0.391006 3.004002,-0.642006c0.312,-0.084 0.622997,-0.167999 0.964001,-0.278999c0.169998,-0.056 0.339996,-0.111 0.509998,-0.167999c0.480999,-0.139 0.964001,-0.306999 1.445,-0.501999c0.255001,-0.084 0.538002,-0.195 0.792999,-0.278999c0.198002,-0.083 0.426003,-0.195 0.652,-0.278c0.396,-0.167999 0.820999,-0.362999 1.246002,-0.558998c0.028,-0.028 0.085999,-0.028 0.142998,-0.056c0.226997,-0.111 0.425003,-0.223999 0.651001,-0.308006c0.056999,-0.026993 0.084999,-0.056 0.141998,-0.083c0.396004,-0.195 0.793999,-0.418999 1.190002,-0.642998c0.452995,-0.250999 0.905998,-0.529999 1.332001,-0.808998c0.452995,-0.278999 0.849998,-0.558998 1.273994,-0.864998c0.397003,-0.278999 0.766006,-0.529999 1.134003,-0.810005c0.028,-0.028 0.084999,-0.056 0.112999,-0.111c0.227005,-0.167999 0.453003,-0.334999 0.652,-0.502998c0.169998,-0.139999 0.368004,-0.306999 0.538002,-0.445999c0.226997,-0.195 0.425003,-0.390999 0.651001,-0.585999c0.368996,-0.362999 0.765999,-0.725998 1.133995,-1.089005c0.312004,-0.306999 0.623001,-0.641998 0.907005,-0.947998c0.056999,-0.084 0.112999,-0.111 0.169998,-0.195c0.112999,-0.112 0.226997,-0.223999 0.339996,-0.362999c0.227005,-0.278 0.453003,-0.557999 0.68,-0.836998c0.085007,-0.084 0.170006,-0.195 0.255005,-0.278999c0.056999,-0.056 0.084999,-0.139999 0.142998,-0.195c0.849998,-1.116005 1.671997,-2.261002 2.379997,-3.488007c8.841003,-15.041996 3.57,-34.354996 -11.702995,-43.033997c-5.271004,-2.986998 -11.052002,-4.354998 -16.719002,-4.214998l0,0zm0.056,1.562c5.383999,-0.111 10.853001,1.172001 15.839996,4.018999c14.565002,8.261002 19.524002,26.568001 11.137001,40.884998c-0.537994,0.892998 -1.133995,1.758003 -1.728996,2.596001c-5.327003,-7.758999 -14.367001,-12.866001 -24.597,-12.866001c-10.23,0 -19.241001,5.107002 -24.597002,12.894001c-6.83,-9.292999 -7.905998,-21.992001 -1.728998,-32.541c5.526999,-9.404997 15.417,-14.762997 25.674999,-14.986998l0,0zm0.652,3.517c-7.056,0 -11.505001,4.493 -11.505001,9.963001c0,3.739998 0.850002,8.288998 2.664001,12c1.813,3.739998 4.731998,6.725998 8.813,6.836998c0.028,0 0.028,0 0.056999,0c4.080002,-0.111 6.999001,-3.098 8.813,-6.836998c1.841999,-3.712002 2.692001,-8.261002 2.692001,-12c-0.001003,-5.470001 -4.478001,-9.963001 -11.534,-9.963001l0,0zm0,1.563c6.403999,0 9.917999,3.739 9.917999,8.399998c0,3.489002 -0.820999,7.870003 -2.521999,11.303001c-1.672001,3.433002 -4.079998,5.861 -7.367001,5.972c-0.028,0 -0.028,0 -0.056999,0c-3.286999,-0.111 -5.695999,-2.540001 -7.368,-5.972s-2.521999,-7.813999 -2.521999,-11.303001c-0.000004,-4.660997 3.541996,-8.399998 9.917999,-8.399998l0,0zm0,31.145c9.889999,0 18.531998,5.022999 23.548004,12.587002c-1.416,1.728996 -3.031006,3.292999 -4.846001,4.715996c-0.368004,0.278999 -0.736,0.529999 -1.104004,0.810005c0,0 0,0 -0.028,0.028c-0.141998,0.083 -0.282997,0.195 -0.426003,0.278c-0.226997,0.167999 -0.480995,0.307999 -0.708,0.474998c-0.169998,0.111 -0.367996,0.223999 -0.537994,0.334999c-0.227005,0.111 -0.454002,0.278999 -0.709,0.390999c-0.170006,0.111 -0.368004,0.223999 -0.566002,0.334999c-0.226997,0.111 -0.453003,0.223999 -0.68,0.334999c-0.199001,0.111 -0.396999,0.223999 -0.624001,0.334999c-0.197998,0.084007 -0.396,0.195 -0.623001,0.279007c-0.226997,0.111 -0.453999,0.195 -0.709,0.306999c-0.34,0.139999 -0.68,0.278999 -1.02,0.418999c-0.084999,0.027 -0.197998,0.083 -0.313,0.111c-0.169998,0.084 -0.34,0.111 -0.509998,0.195c-0.283001,0.084 -0.566002,0.195 -0.878002,0.278999c-0.141998,0.056 -0.283997,0.084 -0.425999,0.139999c-0.312,0.083 -0.623001,0.167 -0.963001,0.250999c-0.453999,0.111 -0.906998,0.250999 -1.389,0.362c0,0 -0.028,-0.027 -0.028,0c-0.084999,0 -0.169998,0.028 -0.226997,0.028c-0.396,0.084 -0.794003,0.167 -1.219002,0.223999c-0.028,0 -0.056999,0.027 -0.084999,0.027c-0.538002,0.084 -1.077,0.139999 -1.615002,0.195c-0.34,0.056 -0.68,0.084 -1.049,0.112c-0.424999,0.027 -0.877998,0.056 -1.302998,0.056c-0.454002,0.027 -0.907001,0.027 -1.333,0c-0.453003,0 -0.878002,0 -1.332001,-0.028c-0.424999,-0.027 -0.850002,-0.056 -1.304001,-0.111c-0.424999,-0.056 -0.877998,-0.084 -1.303001,-0.139999c-7.396,-1.060997 -14.281998,-4.799995 -19.212997,-10.771996c5.018997,-7.536003 13.661999,-12.559002 23.522999,-12.559002l0,0z"/>
  </g>
 </g>
</svg>