<svg xmlns="http://www.w3.org/2000/svg" xmlns:xlink="http://www.w3.org/1999/xlink" version="1.1" id="Your_Icon" x="0px" y="0px" viewBox="5.0 -10.0 100.0 135.0" enable-background="new 0 0 100 100" xml:space="preserve" height="100px" width="100px">
<g>
	<path d="M85.326,79.067H72.001c1.525-1.064,2.846-2.4,3.882-3.945c0.491,0.213,1.002,0.362,1.531,0.443   c0.33,0.051,0.658,0.075,0.983,0.075c3.126,0,5.88-2.285,6.369-5.47c0.262-1.703-0.155-3.405-1.174-4.794   c-1.02-1.39-2.519-2.298-4.22-2.559c-0.518-0.081-1.037-0.092-1.556-0.04c-0.111-0.385-0.231-0.768-0.373-1.147   c-0.219-0.586-0.779-0.974-1.404-0.974h-25.07c-0.625,0-1.186,0.389-1.405,0.974c-0.634,1.694-0.956,3.45-0.956,5.217   c0,5.056,2.537,9.524,6.399,12.219h-6.883c-0.829,0-1.5,0.672-1.5,1.5s0.671,1.5,1.5,1.5h37.202c0.828,0,1.5-0.672,1.5-1.5   S86.155,79.067,85.326,79.067z M78.917,65.783c0.91,0.14,1.712,0.626,2.257,1.368c0.545,0.743,0.768,1.653,0.628,2.564   c-0.288,1.878-2.044,3.173-3.934,2.885c-0.193-0.03-0.378-0.101-0.564-0.166c0.702-1.727,1.096-3.61,1.096-5.586   c0-0.36-0.022-0.718-0.049-1.076C78.541,65.767,78.731,65.754,78.917,65.783z M51.609,66.848c0-1.072,0.15-2.142,0.446-3.19h22.9   c0.297,1.049,0.446,2.118,0.446,3.19c0,6.56-5.337,11.896-11.896,11.896S51.609,73.408,51.609,66.848z"/>
	<path d="M59.644,43.382c0.458-0.195,0.79-0.605,0.885-1.095s-0.06-0.993-0.412-1.346l-3.889-3.889l2.699-2.699   c0.586-0.586,0.586-1.535,0-2.121L45.051,18.355c-0.562-0.562-1.559-0.562-2.121,0l-4.797,4.797   c-1.639-1.859-3.314-2.552-4.529-2.772c-1.769-0.321-3.566,0.108-5.063,1.206c-0.966,0.709-9.357,7.113-6.5,13.677   c0.269,0.617,0.959,1.517,1.709,2.272L13.613,47.671c-0.586,0.586-0.586,1.535,0,2.121L27.49,63.669   c0.281,0.281,0.663,0.439,1.061,0.439s0.779-0.158,1.061-0.439l13.066-13.067L59.644,43.382z M56.424,41.492l-8.071,3.435   l5.753-5.753L56.424,41.492z M43.99,21.537l11.755,11.756l-1.639,1.639L42.35,23.176L43.99,21.537z M24.791,34.065   c-1.568-3.602,2.928-8.155,5.524-10.06c0.826-0.605,1.806-0.843,2.753-0.673c1.029,0.187,2.031,0.855,2.943,1.94L25.865,35.419   C25.405,34.949,24.918,34.358,24.791,34.065z M28.551,60.488l-2.466-2.466L43.56,40.547c0.586-0.586,0.586-1.535,0-2.121   s-1.535-0.586-2.121,0L23.964,55.901l-7.169-7.169L39.04,26.486c0.003-0.002,0.005-0.005,0.007-0.007l1.182-1.182l11.756,11.755   L40.76,48.277c-0.001,0.001-0.001,0.002-0.002,0.002L28.551,60.488z"/>
	<path d="M59.139,47.073c-0.725,0.401-0.986,1.314-0.584,2.039c0.018,0.032,1.767,3.254,0.059,5.846   c-0.455,0.691-0.265,1.622,0.428,2.078c0.254,0.167,0.54,0.247,0.824,0.247c0.487,0,0.965-0.237,1.254-0.675   c2.696-4.091,0.168-8.754,0.059-8.951C60.777,46.932,59.863,46.67,59.139,47.073z"/>
	<path d="M64.983,56.203c-0.308,0.769,0.066,1.642,0.836,1.949c0.183,0.073,0.371,0.107,0.557,0.107   c0.595,0,1.158-0.356,1.393-0.943c3.04-7.603-2.051-12.693-2.269-12.906c-0.59-0.577-1.533-0.563-2.112,0.022   c-0.58,0.587-0.573,1.535,0.011,2.118C63.557,46.709,67.263,50.5,64.983,56.203z"/>
</g>
<text x="0.0" y="117.5" font-size="5.0" font-weight="bold" font-family="Helvetica Neue, Helvetica, Arial-Unicode, Arial, Sans-serif" fill="#000000">Created by Cezary Lopacinski</text><text x="0.0" y="122.5" font-size="5.0" font-weight="bold" font-family="Helvetica Neue, Helvetica, Arial-Unicode, Arial, Sans-serif" fill="#000000">from the Noun Project</text></svg>