<svg xmlns="http://www.w3.org/2000/svg" xmlns:xlink="http://www.w3.org/1999/xlink" version="1.1" id="Your_Icon" x="0px" y="0px" viewBox="5.0 -10.0 100.0 135.0" enable-background="new 0 0 100 100" xml:space="preserve" height="100px" width="100px">
<g>
	<path d="M74.775,79.545H61.451c1.525-1.064,2.845-2.399,3.881-3.944c0.491,0.213,1.002,0.362,1.532,0.443   c0.331,0.051,0.663,0.076,0.992,0.076c1.361,0,2.684-0.43,3.802-1.251c1.389-1.019,2.297-2.518,2.559-4.221   c0.54-3.514-1.88-6.812-5.396-7.353c-0.515-0.078-1.034-0.089-1.553-0.037c-0.11-0.385-0.231-0.768-0.373-1.148   c-0.22-0.586-0.779-0.975-1.405-0.975h-25.07c-0.626,0-1.186,0.389-1.405,0.975c-0.634,1.694-0.955,3.449-0.955,5.216   c0,5.056,2.537,9.524,6.398,12.218h-6.883c-0.828,0-1.5,0.672-1.5,1.5s0.672,1.5,1.5,1.5h37.201c0.828,0,1.5-0.672,1.5-1.5   S75.604,79.545,74.775,79.545z M68.366,66.261c1.88,0.289,3.175,2.053,2.886,3.933c-0.14,0.911-0.626,1.713-1.369,2.258   c-0.743,0.546-1.653,0.769-2.564,0.628c-0.194-0.03-0.379-0.101-0.565-0.167c0.701-1.727,1.096-3.61,1.096-5.585   c0-0.366-0.022-0.731-0.05-1.095C67.99,66.227,68.179,66.232,68.366,66.261z M41.059,67.327c0-1.072,0.149-2.142,0.446-3.19h22.898   c0.297,1.049,0.446,2.118,0.446,3.19c0,6.56-5.336,11.896-11.896,11.896S41.059,73.887,41.059,67.327z"/>
	<path d="M44.045,48.168c0.397,0,0.779-0.158,1.061-0.439l8.909-8.909c0.281-0.281,0.439-0.663,0.439-1.061   s-0.158-0.779-0.439-1.061L35.193,17.877c-0.562-0.562-1.559-0.562-2.121,0l-8.908,8.909c-0.586,0.586-0.586,1.535,0,2.121   l18.82,18.821C43.266,48.01,43.647,48.168,44.045,48.168z M34.133,21.059l16.7,16.7l-6.788,6.788l-16.699-16.7L34.133,21.059z"/>
	<circle cx="49.144" cy="48.557" r="1.288"/>
	<circle cx="50.012" cy="52.282" r="1.287"/>
	<circle cx="53.901" cy="45.961" r="1.288"/>
	<circle cx="55.83" cy="57.238" r="1.287"/>
	<circle cx="56.016" cy="49.125" r="1.287"/>
	<circle cx="56.672" cy="53.444" r="1.288"/>
	<circle cx="49.316" cy="56.076" r="1.287"/>
</g>
<text x="0.0" y="117.5" font-size="5.0" font-weight="bold" font-family="Helvetica Neue, Helvetica, Arial-Unicode, Arial, Sans-serif" fill="#000000">Created by Cezary Lopacinski</text><text x="0.0" y="122.5" font-size="5.0" font-weight="bold" font-family="Helvetica Neue, Helvetica, Arial-Unicode, Arial, Sans-serif" fill="#000000">from the Noun Project</text></svg>